<svg width="323" height="19" viewBox="0 0 323 19" fill="none" xmlns="http://www.w3.org/2000/svg">
<path d="M6.05655 10.7428C2.9315 10.2539 1.96356 8.40686 2.46136 6.09807C3.40164 1.83359 7.86797 0.679199 13.3161 0.679199C20.8106 0.679199 23.4517 2.59414 22.9539 6.08449H15.2381C15.404 5.41901 15.0998 5.02516 14.5052 4.76712C13.966 4.50908 13.2331 4.42759 12.5002 4.42759C10.5229 4.42759 9.77619 4.88935 9.61025 5.60915C9.54112 6.05733 9.67939 6.35611 10.3155 6.45118L18.0036 7.60557C21.2255 8.0945 22.9678 9.61558 22.4008 12.4133C21.5297 16.4469 17.7962 18.3211 10.3431 18.3211C5.29603 18.3211 -0.207377 17.6284 0.829697 12.78H8.82208C8.71146 13.3096 8.87739 13.7035 9.27839 13.948C9.70705 14.1788 10.4261 14.2875 11.4355 14.2875C13.5097 14.2875 14.1872 13.7578 14.367 12.943C14.4638 12.454 14.2425 11.9923 13.399 11.8293L6.05655 10.7428Z" stroke="url(#paint00_linear)" stroke-miterlimit="10"/>
<path d="M27.4064 1.24951H45.2441L44.4006 5.26953H33.1864L32.7163 7.48325H43.1285L42.285 11.5033H31.8728L31.4026 13.717H42.6169L41.7734 17.737H23.9219L27.4064 1.24951Z" stroke="url(#paint01_linear)" stroke-miterlimit="10"/>
<path d="M48.8394 1.24951H55.4628L52.9047 13.3096H63.1787L62.266 17.737H45.3687L48.8394 1.24951Z" stroke="url(#paint02_linear)" stroke-miterlimit="10"/>
<path d="M68.9585 1.24951H85.9527L85.1092 5.26953H74.7385L74.1992 7.78203H83.7403L82.8968 11.802H73.3557L72.1112 17.737H65.4878L68.9585 1.24951Z" stroke="url(#paint3_linear)" stroke-miterlimit="10"/>
<path d="M102.906 1.24951H120.743L119.9 5.26953H108.685L108.215 7.48325H118.628L117.784 11.5033H107.372L106.902 13.717H118.116L117.272 17.737H99.4348L102.906 1.24951Z" stroke="url(#paint4_linear)" stroke-miterlimit="10"/>
<path d="M129.634 9.12657L124.739 1.24951H132.524L134.28 4.84851L137.544 1.24951H145.329L137.101 9.12657L142.84 17.737H134.654L132.441 13.4861L128.445 17.737H120.259L129.634 9.12657Z" stroke="url(#paint5_linear)" stroke-miterlimit="10"/>
<path d="M149.919 1.24951H163.595C168.269 1.24951 169.61 3.32742 168.808 6.99433C168.172 10.1587 165.89 12.6033 161.244 12.6033H154.15L153.072 17.7234H146.448L149.919 1.24951ZM154.994 8.5969H159.267C160.954 8.5969 161.659 8.0944 161.922 6.88568C162.198 5.60905 161.687 5.13371 160 5.13371H155.727L154.994 8.5969Z" stroke="url(#paint6_linear)" stroke-miterlimit="10"/>
<path d="M172.583 1.24951H186.549C188.457 1.24951 189.563 1.41249 190.407 1.84708C191.513 2.47181 192.218 4.02006 191.845 5.83993C191.471 7.41534 190.559 9.04508 188.457 9.60191L188.429 9.64265C189.37 9.91427 189.978 10.7291 189.798 12.1823L189.328 15.7813C189.231 16.5147 189.397 17.1938 189.757 17.7234H182.511C182.345 17.2617 182.511 16.474 182.815 14.6133C183.009 13.391 182.718 12.6577 181.502 12.6577H176.8L175.749 17.737H169.126L172.583 1.24951ZM177.685 8.50183H182.387C183.7 8.50183 184.336 7.99933 184.544 6.95359C184.806 5.67696 184.046 5.40534 182.94 5.40534H178.335L177.685 8.50183Z" stroke="url(#paint7_linear)" stroke-miterlimit="10"/>
<path d="M196.601 1.24951H214.439L213.596 5.26953H202.381L201.911 7.48325H212.323L211.48 11.5033H201.068L200.598 13.717H211.812L210.968 17.737H193.131L196.601 1.24951Z" stroke="url(#paint8_linear)" stroke-miterlimit="10"/>
<path d="M220.247 10.7428C217.122 10.2539 216.154 8.40686 216.652 6.09807C217.592 1.83359 222.059 0.679199 227.507 0.679199C235.001 0.679199 237.642 2.59414 237.145 6.08449H229.429C229.595 5.41901 229.29 5.02516 228.696 4.76712C228.157 4.50908 227.424 4.42759 226.705 4.42759C224.727 4.42759 223.981 4.88935 223.815 5.60915C223.718 6.07091 223.856 6.36969 224.492 6.46476L232.18 7.61916C235.402 8.10808 237.145 9.62916 236.578 12.4269C235.706 16.4605 231.973 18.3347 224.52 18.3347C219.473 18.3347 213.969 17.642 215.006 12.7936H222.999C222.902 13.3232 223.068 13.7171 223.469 13.9751C223.898 14.206 224.617 14.3147 225.626 14.3147C227.7 14.3147 228.378 13.785 228.558 12.9701C228.654 12.4812 228.447 12.0194 227.59 11.8565L220.247 10.7428Z" stroke="url(#paint9_linear)" stroke-miterlimit="10"/>
<path d="M244.279 10.7428C241.154 10.2539 240.186 8.40686 240.684 6.09807C241.624 1.83359 246.091 0.679199 251.539 0.679199C259.033 0.679199 261.675 2.59414 261.177 6.08449H253.461C253.627 5.41901 253.323 5.02516 252.728 4.76712C252.189 4.50908 251.456 4.42759 250.737 4.42759C248.76 4.42759 248.013 4.88935 247.847 5.60915C247.75 6.07091 247.888 6.36969 248.524 6.46476L256.213 7.61916C259.434 8.10808 261.177 9.62916 260.61 12.4269C259.739 16.4605 256.005 18.3347 248.552 18.3347C243.505 18.3347 238.002 17.642 239.039 12.7936H247.031C246.934 13.3232 247.1 13.7171 247.501 13.9751C247.93 14.206 248.649 14.3147 249.658 14.3147C251.732 14.3147 252.41 13.785 252.59 12.9701C252.687 12.4812 252.479 12.0194 251.622 11.8565L244.279 10.7428Z" stroke="url(#paint10_linear)" stroke-miterlimit="10"/>
<path d="M265.698 1.24951H272.322L268.837 17.737H262.214L265.698 1.24951Z" stroke="url(#paint11_linear)" stroke-miterlimit="10"/>
<path d="M286.799 0.679199C290.823 0.679199 298.193 0.950822 296.41 9.49335C294.626 18.0359 287.076 18.3075 283.052 18.3075C279.028 18.3075 271.658 18.0359 273.469 9.49335C275.253 0.950822 282.775 0.679199 286.799 0.679199ZM283.951 14.1653C286.675 14.1653 288.611 12.8479 289.357 9.50693C290.063 6.16597 288.625 4.84861 285.928 4.84861C283.204 4.84861 281.227 6.16597 280.522 9.50693C279.775 12.8479 281.227 14.1653 283.951 14.1653Z" stroke="url(#paint12_linear)" stroke-miterlimit="10"/>
<path d="M301.443 1.24951H309.007L313.805 10.3896H313.874L315.796 1.24951H322.143L318.658 17.737H311.399L306.296 8.50183H306.255L304.305 17.737H297.958L301.443 1.24951Z" stroke="url(#paint13_linear)" stroke-miterlimit="10"/>
<defs>
<linearGradient id="paint00_linear" x1="3.77564e-05" y1="9.4977" x2="23.7085" y2="9.4977" gradientUnits="userSpaceOnUse">
<stop stop-color="#A495D5"/>
<stop offset="0.4758" stop-color="#99ACD7"/>
<stop offset="1" stop-color="#8BC6D8"/>
</linearGradient>
<linearGradient id="paint01_linear" x1="23.0759" y1="9.4976" x2="46.0938" y2="9.4976" gradientUnits="userSpaceOnUse">
<stop stop-color="#A495D5"/>
<stop offset="0.4758" stop-color="#99ACD7"/>
<stop offset="1" stop-color="#8BC6D8"/>
</linearGradient>
<linearGradient id="paint02_linear" x1="44.5142" y1="9.4976" x2="64.0262" y2="9.4976" gradientUnits="userSpaceOnUse">
<stop stop-color="#A495D5"/>
<stop offset="0.4758" stop-color="#99ACD7"/>
<stop offset="1" stop-color="#8BC6D8"/>
</linearGradient>
<linearGradient id="paint3_linear" x1="64.6357" y1="9.4976" x2="86.8071" y2="9.4976" gradientUnits="userSpaceOnUse">
<stop stop-color="#A495D5"/>
<stop offset="0.4758" stop-color="#99ACD7"/>
<stop offset="1" stop-color="#8BC6D8"/>
</linearGradient>
<linearGradient id="paint4_linear" x1="98.5799" y1="9.4976" x2="121.598" y2="9.4976" gradientUnits="userSpaceOnUse">
<stop stop-color="#A495D5"/>
<stop offset="0.4758" stop-color="#99ACD7"/>
<stop offset="1" stop-color="#8BC6D8"/>
</linearGradient>
<linearGradient id="paint5_linear" x1="118.53" y1="9.4976" x2="147.035" y2="9.4976" gradientUnits="userSpaceOnUse">
<stop stop-color="#A495D5"/>
<stop offset="0.4758" stop-color="#99ACD7"/>
<stop offset="1" stop-color="#8BC6D8"/>
</linearGradient>
<linearGradient id="paint6_linear" x1="145.592" y1="9.4976" x2="169.726" y2="9.4976" gradientUnits="userSpaceOnUse">
<stop stop-color="#A495D5"/>
<stop offset="0.4758" stop-color="#99ACD7"/>
<stop offset="1" stop-color="#8BC6D8"/>
</linearGradient>
<linearGradient id="paint7_linear" x1="168.253" y1="9.4976" x2="192.624" y2="9.4976" gradientUnits="userSpaceOnUse">
<stop stop-color="#A495D5"/>
<stop offset="0.4758" stop-color="#99ACD7"/>
<stop offset="1" stop-color="#8BC6D8"/>
</linearGradient>
<linearGradient id="paint8_linear" x1="192.277" y1="9.4976" x2="215.293" y2="9.4976" gradientUnits="userSpaceOnUse">
<stop stop-color="#A495D5"/>
<stop offset="0.4758" stop-color="#99ACD7"/>
<stop offset="1" stop-color="#8BC6D8"/>
</linearGradient>
<linearGradient id="paint9_linear" x1="214.194" y1="9.4977" x2="237.901" y2="9.4977" gradientUnits="userSpaceOnUse">
<stop stop-color="#A495D5"/>
<stop offset="0.4758" stop-color="#99ACD7"/>
<stop offset="1" stop-color="#8BC6D8"/>
</linearGradient>
<linearGradient id="paint10_linear" x1="238.218" y1="9.4977" x2="261.925" y2="9.4977" gradientUnits="userSpaceOnUse">
<stop stop-color="#A495D5"/>
<stop offset="0.4758" stop-color="#99ACD7"/>
<stop offset="1" stop-color="#8BC6D8"/>
</linearGradient>
<linearGradient id="paint11_linear" x1="261.364" y1="9.4976" x2="273.17" y2="9.4976" gradientUnits="userSpaceOnUse">
<stop stop-color="#A495D5"/>
<stop offset="0.4758" stop-color="#99ACD7"/>
<stop offset="1" stop-color="#8BC6D8"/>
</linearGradient>
<linearGradient id="paint12_linear" x1="272.5" y1="9.4977" x2="297.378" y2="9.4977" gradientUnits="userSpaceOnUse">
<stop stop-color="#A495D5"/>
<stop offset="0.4758" stop-color="#99ACD7"/>
<stop offset="1" stop-color="#8BC6D8"/>
</linearGradient>
<linearGradient id="paint13_linear" x1="297.117" y1="9.4976" x2="323.002" y2="9.4976" gradientUnits="userSpaceOnUse">
<stop stop-color="#A495D5"/>
<stop offset="0.4758" stop-color="#99ACD7"/>
<stop offset="1" stop-color="#8BC6D8"/>
</linearGradient>
</defs>
</svg>
