<svg width="21" height="21" viewBox="0 0 21 21" fill="none" xmlns="http://www.w3.org/2000/svg">
<path d="M10.263 15.16C7.86298 15.16 5.90869 13.2086 5.90869 10.8057C5.90869 8.40285 7.86298 6.45142 10.263 6.45142C12.663 6.45142 14.6173 8.40571 14.6173 10.8057C14.6173 13.2057 12.663 15.16 10.263 15.16ZM10.263 7.15999C8.25156 7.15999 6.61727 8.79714 6.61727 10.8057C6.61727 12.8143 8.25441 14.4514 10.263 14.4514C12.2716 14.4514 13.9087 12.8143 13.9087 10.8057C13.9087 8.79714 12.2744 7.15999 10.263 7.15999Z" fill="#8B8B8B"/>
<path d="M10.6139 0.805664H9.9082V4.30854H10.6139V0.805664Z" fill="#8B8B8B"/>
<path d="M5.56769 1.96941L4.95654 2.32227L6.70798 5.35575L7.31913 5.00289L5.56769 1.96941Z" fill="#8B8B8B"/>
<path d="M1.77913 5.50164L1.42627 6.11279L4.45975 7.86423L4.81261 7.25308L1.77913 5.50164Z" fill="#8B8B8B"/>
<path d="M3.76507 10.4512H0.262207V11.1569H3.76507V10.4512Z" fill="#8B8B8B"/>
<path d="M4.46073 13.7477L1.42725 15.4995L1.78018 16.1107L4.81366 14.3589L4.46073 13.7477Z" fill="#8B8B8B"/>
<path d="M6.70931 16.2558L4.95752 19.2893L5.56867 19.6422L7.32046 16.6087L6.70931 16.2558Z" fill="#8B8B8B"/>
<path d="M10.6139 17.3027H9.9082V20.8056H10.6139V17.3027Z" fill="#8B8B8B"/>
<path d="M13.8167 16.257L13.2056 16.6099L14.957 19.6433L15.5681 19.2905L13.8167 16.257Z" fill="#8B8B8B"/>
<path d="M16.0667 13.7497L15.7139 14.3608L18.7474 16.1123L19.1002 15.5011L16.0667 13.7497Z" fill="#8B8B8B"/>
<path d="M20.2621 10.4512H16.7593V11.1569H20.2621V10.4512Z" fill="#8B8B8B"/>
<path d="M18.7493 5.49822L15.7158 7.25L16.0687 7.86115L19.1022 6.10937L18.7493 5.49822Z" fill="#8B8B8B"/>
<path d="M14.9578 1.96749L13.2061 5.00098L13.8172 5.35391L15.569 2.32042L14.9578 1.96749Z" fill="#8B8B8B"/>
<path d="M10.2619 14.4516C12.2754 14.4516 13.9077 12.8194 13.9077 10.8059C13.9077 8.7924 12.2754 7.16016 10.2619 7.16016C8.24846 7.16016 6.61621 8.7924 6.61621 10.8059C6.61621 12.8194 8.24846 14.4516 10.2619 14.4516Z" fill="white"/>
</svg>
