<svg xmlns="http://www.w3.org/2000/svg" xmlns:xlink="http://www.w3.org/1999/xlink" viewBox="25 -10 280 80.3" xml:space="preserve" fill="none">
  <defs>
    <linearGradient id="linear-gradient" x1="0.532" y1="1" x2="0.535" gradientUnits="objectBoundingBox">
      <stop offset="0" stop-color="#73ceda"/>
      <stop offset="1" stop-color="#a891d9"/>
    </linearGradient>
  </defs>
  <path style="stroke: url(#myLinearGradient1);
							stroke-width: 1.5;" d="M223.832,62.44a35.4,35.4,0,0,1-16.02-3.847,26.035,26.035,0,0,1-11.041-11.279,37.732,37.732,0,0,1-3.834-17.539,37.39,37.39,0,0,1,3.833-17.458A26.483,26.483,0,0,1,207.754,1.04a34.792,34.792,0,0,1,16.888-3.889c7.1,0,13.262,1.535,18.3,4.562a20.938,20.938,0,0,1,9.78,13.9l.08.406-17.684,7.094-.109-.6c-.67-3.714-1.761-6.275-3.242-7.609s-3.68-2-6.566-2a9.608,9.608,0,0,0-8.427,4.134c-1.98,2.8-2.983,7.094-2.983,12.759,0,11.365,3.67,16.891,11.22,16.891,3.011,0,5.332-.7,6.9-2.1s2.651-3.7,3.2-6.848l.092-.54L253.4,42.1l-.122.477c-1.725,6.774-5.12,11.835-10.09,15.041-4.942,3.19-11.154,4.807-18.465,4.807C224.427,62.437,224.129,62.44,223.832,62.44Zm-.086-64.3a33.759,33.759,0,0,0-15.522,3.783,25.471,25.471,0,0,0-10.561,10.843,36.411,36.411,0,0,0-3.726,17.009,36.748,36.748,0,0,0,3.73,17.093,25.027,25.027,0,0,0,10.608,10.838,34.292,34.292,0,0,0,16.436,3.723c7.128,0,13.158-1.564,17.935-4.647,4.635-2.99,7.842-7.688,9.54-13.97l-16.2-4.365c-.613,3.1-1.761,5.419-3.416,6.887-1.757,1.558-4.3,2.347-7.563,2.347-8.109,0-12.22-6.02-12.22-17.891,0-5.876,1.065-10.361,3.164-13.333a10.583,10.583,0,0,1,9.271-4.559c3.116,0,5.549.759,7.211,2.255,1.587,1.43,2.715,3.911,3.442,7.573L251.653,15.4a19.936,19.936,0,0,0-9.228-12.826c-4.878-2.933-10.865-4.42-17.8-4.42C224.334-1.856,224.039-1.86,223.746-1.86ZM-51.975,62.44a35.382,35.382,0,0,1-16.018-3.847A26.03,26.03,0,0,1-79.039,47.314a37.727,37.727,0,0,1-3.835-17.539,37.682,37.682,0,0,1,3.832-17.506A26.037,26.037,0,0,1-68,1,35.409,35.409,0,0,1-51.07-2.844v0c9.856,0,17.668,2.9,23.219,8.61s8.366,13.793,8.365,24.025S-22.3,48.109-27.851,53.819s-13.367,8.61-23.227,8.61h-.005C-51.38,62.437-51.678,62.44-51.975,62.44Zm0-64.294A34.371,34.371,0,0,0-67.539,1.882,25.02,25.02,0,0,0-78.146,12.715a36.7,36.7,0,0,0-3.728,17.06,36.753,36.753,0,0,0,3.73,17.093A25.022,25.022,0,0,0-67.531,57.706,34.249,34.249,0,0,0-51.1,61.429h0c9.592,0,17.166-2.8,22.524-8.307s8.081-13.365,8.081-23.329S-23.2,11.981-28.567,6.465-41.5-1.842-51.083-1.842H-51.1Q-51.535-1.854-51.976-1.854Zm-68.9,64.294A35.382,35.382,0,0,1-136.9,58.593a26.026,26.026,0,0,1-11.042-11.279,37.733,37.733,0,0,1-3.834-17.536,37.393,37.393,0,0,1,3.832-17.457A26.474,26.474,0,0,1-136.956,1.044a34.786,34.786,0,0,1,16.888-3.888c7.1,0,13.263,1.534,18.3,4.561a20.937,20.937,0,0,1,9.78,13.892l.08.406-17.684,7.1-.109-.6c-.67-3.715-1.761-6.274-3.242-7.609s-3.68-2-6.566-2a9.633,9.633,0,0,0-8.427,4.134c-1.981,2.8-2.985,7.094-2.985,12.758,0,11.365,3.67,16.891,11.22,16.891,3.011,0,5.332-.7,6.9-2.095s2.649-3.7,3.194-6.848l.093-.54,18.209,4.9-.122.477c-1.726,6.774-5.121,11.836-10.092,15.045-4.936,3.187-11.141,4.8-18.438,4.8h-.027C-120.284,62.437-120.582,62.44-120.879,62.44Zm-.087-64.3a33.754,33.754,0,0,0-15.52,3.783A25.459,25.459,0,0,0-147.047,12.77a36.4,36.4,0,0,0-3.726,17.008,36.749,36.749,0,0,0,3.729,17.09,25.019,25.019,0,0,0,10.609,10.838A34.267,34.267,0,0,0-120,61.429h.026c7.116,0,13.137-1.562,17.91-4.643,4.635-2.992,7.843-7.692,9.54-13.974l-16.2-4.363c-.613,3.1-1.761,5.419-3.416,6.887-1.756,1.558-4.3,2.347-7.563,2.347-8.109,0-12.22-6.02-12.22-17.891,0-5.875,1.065-10.36,3.166-13.332a10.578,10.578,0,0,1,9.271-4.559c3.115,0,5.549.76,7.21,2.255,1.588,1.43,2.716,3.911,3.443,7.573L-93.057,15.4a19.931,19.931,0,0,0-9.228-12.822c-4.878-2.933-10.864-4.419-17.8-4.419Q-120.523-1.856-120.966-1.856Zm580.625,64.29q-.315,0-.632,0c-7.2,0-13.1-.789-17.548-2.345a37.231,37.231,0,0,1-12.456-7.424l-.324-.292,9.6-14.148.424.518a21.974,21.974,0,0,0,8.27,6.238,27.919,27.919,0,0,0,10.8,1.9c5.386,0,8.11-1.231,8.11-3.659,0-.986-.717-1.764-2.191-2.374a43.647,43.647,0,0,0-7.968-2.047,74.337,74.337,0,0,1-12.812-3.428,21.748,21.748,0,0,1-8.758-6.047c-2.339-2.7-3.525-6.322-3.525-10.774a18.872,18.872,0,0,1,3.4-11.155,21.965,21.965,0,0,1,9.872-7.553,39.307,39.307,0,0,1,15.3-2.68A44.728,44.728,0,0,1,474.842-.407a36.422,36.422,0,0,1,12.62,8.3l.309.311-10.1,13.032-.4-.479a23.451,23.451,0,0,0-7.912-6.154,23.173,23.173,0,0,0-9.652-1.89,12.211,12.211,0,0,0-6.118,1.27,3.439,3.439,0,0,0-1.992,3.063c0,.907.67,1.621,2.048,2.174a46.723,46.723,0,0,0,7.743,1.953,58.139,58.139,0,0,1,14.63,4.242,18.913,18.913,0,0,1,8.152,6.745,18.565,18.565,0,0,1,2.586,10.129,16.959,16.959,0,0,1-3.7,10.976,22.468,22.468,0,0,1-9.963,6.871A40.274,40.274,0,0,1,459.659,62.434ZM430.018,52.206a36.23,36.23,0,0,0,11.794,6.936c4.335,1.517,10.13,2.287,17.223,2.287a39.419,39.419,0,0,0,13.729-2.241,21.445,21.445,0,0,0,9.516-6.559,15.969,15.969,0,0,0,3.476-10.348,17.582,17.582,0,0,0-2.431-9.589,17.9,17.9,0,0,0-7.707-6.363,57.113,57.113,0,0,0-14.386-4.171,47.662,47.662,0,0,1-7.937-2.005c-1.8-.72-2.7-1.767-2.7-3.119a4.427,4.427,0,0,1,2.554-3.952,13.113,13.113,0,0,1,6.573-1.371,24.231,24.231,0,0,1,10.048,1.978,24.5,24.5,0,0,1,7.865,5.954l8.8-11.359A35.4,35.4,0,0,0,474.5.531a43.665,43.665,0,0,0-15.26-2.375h-.023A38.282,38.282,0,0,0,444.284.769a20.958,20.958,0,0,0-9.42,7.2,17.872,17.872,0,0,0-3.211,10.566c0,4.212,1.1,7.616,3.279,10.125a20.76,20.76,0,0,0,8.35,5.766,73.282,73.282,0,0,0,12.63,3.38,44.6,44.6,0,0,1,8.165,2.1c1.885.781,2.83,1.891,2.83,3.307,0,3.092-3.061,4.659-9.1,4.659A28.892,28.892,0,0,1,446.614,45.9a23.012,23.012,0,0,1-8.235-6.018ZM389.374,62.433c-9.789,0-17.249-2.328-22.174-6.916s-7.437-11.567-7.436-20.711v-36.7h20.47V35.842c0,7.3,2.991,10.842,9.141,10.842,6.213,0,9.232-3.546,9.232-10.842V-1.895h20.376l0,36.7C418.986,53.138,409.023,62.433,389.374,62.433ZM360.764-.895v35.7c0,8.855,2.394,15.578,7.118,19.979s11.965,6.648,21.492,6.648c19.253,0,28.612-8.71,28.612-26.627h0l0-35.7H399.607V35.842c0,7.857-3.442,11.842-10.232,11.842-6.729,0-10.141-3.985-10.141-11.842V-.895ZM188.651,61.487H167.725l-3.5-12.953H145.988L142.4,61.483H122.042L143.361-1.895h23.875Zm-20.161-1h18.769L166.519-.895H144.08L123.433,60.483h18.2l3.592-12.949H164.99Zm132.348,1H280.557V13.563H260.519V-1.895h60.168V13.558H300.838Zm-19.281-1h18.281V12.558h19.849V-.895H261.519V12.563h20.038Zm-176.373,1H84.907V13.563H64.864V-1.895h60.169V13.563H105.184Zm-19.277-1h18.277V12.563h19.849V-.895H65.864V12.563H85.907Zm-32.614,1H31.326L14.169,30.317l-3.16-6.77.317,10.388V61.483H-6.493V-1.895H15.381l17.15,31.159,3.156,6.6-.313-10.222V-1.895H53.293Zm-21.376-1H52.293V-.895H36.374V25.63l.394,12.883h-.831l-.231-.284-4.064-8.508L14.79-.895H-5.493V60.483H10.326V33.95L9.933,21.069h1.023l4.1,8.8Zm-83.005-12.8c-4,0-7.033-1.523-9.013-4.525-1.937-2.937-2.919-7.434-2.919-13.366s.985-10.429,2.92-13.365a9.986,9.986,0,0,1,8.517-4.516V11.9h.5c4.005,0,7.023,1.507,8.971,4.48,1.9,2.9,2.87,7.416,2.87,13.412S-40.208,40.3-42.112,43.2c-1.948,2.972-4.967,4.479-8.972,4.479Zm.213-34.781h-.208c-3.7,0-6.375,1.333-8.182,4.075-1.826,2.77-2.753,7.081-2.755,12.814s.927,10.045,2.754,12.815c1.808,2.743,4.483,4.076,8.178,4.076h0c3.7,0,6.36-1.318,8.136-4.028,1.8-2.738,2.706-7.066,2.706-12.863s-.91-10.125-2.706-12.864C-44.691,14.269-47.285,12.951-50.875,12.9ZM161.957,36.058H148.348l3.678-13.112,2.65-10.478h.965l2.744,10.582Zm-12.29-1h10.979l-3.227-11.75-2.254-8.694-2.173,8.59Z"/>
</svg>
