<svg xmlns="http://www.w3.org/2000/svg" width="953.185" height="70.061" viewBox="-4 -4 970.185 78.061">
  <path id="Path_10" data-name="Path 10" d="M32.453,5.6A47.651,47.651,0,0,1,49.058,8.19a38.825,38.825,0,0,1,13.355,8.785l-10.156,13.1a25.577,25.577,0,0,0-8.683-6.754A25.593,25.593,0,0,0,32.961,21.24a13.575,13.575,0,0,0-6.8,1.422,4.25,4.25,0,0,0-2.437,3.758q0,1.828,2.539,2.844A50.487,50.487,0,0,0,34.687,31.4a61.907,61.907,0,0,1,15.589,4.519,19.821,19.821,0,0,1,8.531,7.058A19.426,19.426,0,0,1,61.5,53.536,17.678,17.678,0,0,1,57.64,65.013a23.6,23.6,0,0,1-10.461,7.211A42.887,42.887,0,0,1,32.25,74.661q-11.578,0-18.687-2.488A39.656,39.656,0,0,1,.36,64.3l9.648-14.218a24.051,24.051,0,0,0,9.09,6.855A30.791,30.791,0,0,0,30.93,59.021q9.242,0,9.242-4.469,0-1.93-2.691-3.047A47.427,47.427,0,0,0,28.8,49.271a79.074,79.074,0,0,1-13.66-3.656,22.775,22.775,0,0,1-9.191-6.348Q2.29,35.052,2.29,28.045A19.861,19.861,0,0,1,5.844,16.365,23.1,23.1,0,0,1,16.2,8.444,42.026,42.026,0,0,1,32.453,5.6Zm95.162,52.507V73.645H72.265V6.616h54.03V22.154H92.983V33.021h26.609V47.443H92.983V58.107Zm63.069,0V73.645H138.075V6.616h20.718V58.107Zm31.484-35.952V33.834h26.609V49.372H222.167V73.645H201.449V6.616h53.928V22.154ZM349.828,58.107V73.645h-55.35V6.616h54.03V22.154H315.2V33.021H341.8V47.443H315.2V58.107ZM398.78,73.645l-10.562-19.6-9.953,19.6H354.7L377.249,40.13,355.82,6.616H380.3l9.547,19.093,9.648-19.093h22.546L400.71,39.623l23.054,34.023ZM465.2,6.616q13.3,0,20.211,5.789t6.906,17.062q0,10.664-6.957,16.3T465.2,51.4H452.607V73.645H431.889V6.616Zm-3.351,30.163q4.976,0,7.312-1.828t2.336-5.687q0-3.859-2.336-5.687t-7.312-1.828h-9.242V36.779Zm70.686,13.609h-8.429V73.645H503.793V6.616H538.12q12.8,0,19.5,5.586t6.7,16.351q0,14.625-12.492,19.6l16.351,25.492H545.534Zm-8.429-14.117H534.16q5.078,0,7.211-1.676T543.5,29.06q0-3.859-2.184-5.586t-7.16-1.727H524.105ZM632.064,58.107V73.645h-55.35V6.616h54.03V22.154H597.432V33.021H624.04V47.443H597.432V58.107ZM670.25,5.6a47.651,47.651,0,0,1,16.605,2.59,38.825,38.825,0,0,1,13.355,8.785l-10.156,13.1a23.555,23.555,0,0,0-19.3-8.836,13.576,13.576,0,0,0-6.8,1.422,4.25,4.25,0,0,0-2.437,3.758q0,1.828,2.539,2.844a50.489,50.489,0,0,0,8.43,2.133,61.906,61.906,0,0,1,15.589,4.519,19.82,19.82,0,0,1,8.531,7.058A19.427,19.427,0,0,1,699.3,53.536a17.678,17.678,0,0,1-3.859,11.476,23.6,23.6,0,0,1-10.461,7.211,42.887,42.887,0,0,1-14.929,2.437q-11.578,0-18.687-2.488a39.655,39.655,0,0,1-13.2-7.871l9.648-14.218a24.052,24.052,0,0,0,9.09,6.855,30.792,30.792,0,0,0,11.832,2.082q9.242,0,9.242-4.469,0-1.93-2.691-3.047a47.427,47.427,0,0,0-8.683-2.234,79.074,79.074,0,0,1-13.66-3.656,22.775,22.775,0,0,1-9.191-6.348q-3.656-4.215-3.656-11.222a19.861,19.861,0,0,1,3.555-11.679A23.1,23.1,0,0,1,654,8.444,42.025,42.025,0,0,1,670.25,5.6Zm67.537,0a47.651,47.651,0,0,1,16.605,2.59,38.824,38.824,0,0,1,13.355,8.785l-10.156,13.1a23.555,23.555,0,0,0-19.3-8.836,13.576,13.576,0,0,0-6.8,1.422,4.25,4.25,0,0,0-2.437,3.758q0,1.828,2.539,2.844a50.485,50.485,0,0,0,8.429,2.133,61.906,61.906,0,0,1,15.589,4.519,19.82,19.82,0,0,1,8.531,7.058,19.427,19.427,0,0,1,2.691,10.562,17.678,17.678,0,0,1-3.859,11.476,23.6,23.6,0,0,1-10.461,7.211,42.888,42.888,0,0,1-14.929,2.437q-11.578,0-18.687-2.488a39.656,39.656,0,0,1-13.2-7.871l9.648-14.218a24.051,24.051,0,0,0,9.09,6.855,30.79,30.79,0,0,0,11.832,2.082q9.242,0,9.242-4.469,0-1.93-2.691-3.047a47.428,47.428,0,0,0-8.683-2.234,79.074,79.074,0,0,1-13.66-3.656,22.775,22.775,0,0,1-9.191-6.348q-3.656-4.215-3.656-11.222a19.861,19.861,0,0,1,3.555-11.679,23.1,23.1,0,0,1,10.359-7.922A42.026,42.026,0,0,1,737.788,5.6Zm60.53,68.045H777.6V6.616h20.718ZM843.816,5.6q15.742,0,24.578,9.09T877.23,40.13q0,16.351-8.836,25.441t-24.578,9.09A37.37,37.37,0,0,1,825.891,70.6a27.568,27.568,0,0,1-11.629-11.883Q810.2,50.9,810.2,40.13t4.062-18.585A27.568,27.568,0,0,1,825.891,9.662,37.37,37.37,0,0,1,843.816,5.6Zm0,15.843q-6.2,0-9.242,4.621T831.527,40.13q0,9.445,3.047,14.066t9.242,4.621q6.2,0,9.191-4.57t3-14.117q0-9.547-3-14.117T843.816,21.443Zm108.568,52.2h-22.75l-18.281-33.21-4.266-9.14h-.2l.406,13.3V73.645H889.214V6.616h22.648l18.281,33.21,4.367,9.14h.1l-.406-13.3V6.616h18.179Z" transform="translate(0.301 -5.1)"  stroke="#fff" stroke-width="2" fill="none"/>
</svg>
