<?xml version="1.0" encoding="utf-8"?>
<!-- Generator: Adobe Illustrator 24.1.2, SVG Export Plug-In . SVG Version: 6.00 Build 0)  -->
<svg version="1.1" id="Layer_1" xmlns="http://www.w3.org/2000/svg" xmlns:xlink="http://www.w3.org/1999/xlink" x="0px" y="0px"
	 viewBox="0 0 355 60" style="enable-background:new 0 0 365 66;" xml:space="preserve">
<defs>
	<linearGradient id="myLinearGradient1"
									x1="0%" y1="0%"
									x2="0%" y2="100%"
									spreadMethod="pad">
		<stop offset="0%"   stop-color="#A891D9" stop-opacity="1"/>
		<stop offset="100%" stop-color="#73CFDB" stop-opacity="1"/>
	</linearGradient>
  </defs>
	<g>
		<path style=";
							stroke: url(#myLinearGradient1);
							stroke-width: 1.5;" class="st0" d="M87.1,0H58.8L39.5,28.9L32.6,0H4.4L17,44.9H4L0.4,60h21.3c22.6,0,36.1-19,36.1-19L87.1,0z M81,44.9l41.8-29.8H88.4L92.2,0h67.7l-3.2,15.1l-41.2,29.8h37.1l-4,15.1H78L81,44.9z M170.5,0h63.8l-3,14.6h-40.1l-1.7,8.1h37.2l-3,14.6h-37.2l-1.7,8.1h40.1l-3,14.6h-63.8L170.5,0z M243.7,0h46.2c20.4,0,29.3,7.9,24.9,30c-4.4,21.1-16.9,30-36.8,30h-46.7L243.7,0z M258.1,44.9h13.6 c10.8,0,16.3-5.4,18.3-14.9c1.9-9.5-1.3-14.9-12.1-14.9h-13.6L258.1,44.9z M330.7,47.9a12.1,12.1 0 1,0 24.2,0a12.1,12.1 0 1,0 -24.2,0"/>
	</g>
</svg>
