<?xml version="1.0" encoding="utf-8"?>
<!-- Generator: Adobe Illustrator 24.1.3, SVG Export Plug-In . SVG Version: 6.00 Build 0)  -->
<svg version="1.1" id="Laag_1" xmlns="http://www.w3.org/2000/svg" xmlns:xlink="http://www.w3.org/1999/xlink" x="0px" y="0px"
	 viewBox="0 0 900 900" style="enable-background:new 0 0 900 900;" xml:space="preserve">
<defs>
	<linearGradient id="myLinearGradient1" x1="100%" y1="0%" x2="0%" y2="0%" >
			<stop offset="0%" stop-color="#A891D9">
					<animate attributeName="stop-color" values="#fff; #A891D9; #73CFDB; #fff; #A891D9; #73CFDB;" dur="4s" repeatCount="indefinite"></animate>
			</stop>

			<stop offset="100%" stop-color="#73CFDB">
					<animate attributeName="stop-color" values=" #73CFDB; #fff; #A891D9; #73CFDB; #fff; #A891D9;" dur="4s" repeatCount="indefinite"></animate>
			</stop>
    </linearGradient>
  </defs>
<g>
	<path style="stroke: url(#myLinearGradient1); stroke-width: 2;" d="M422.9,478.3h-67.2l2.9-14.8l0.1-0.1l38.5-27.5h-31.7l3.8-14.9h64.5l-3.1,14.8l-0.1,0.1l-38,27.5h34.3
		L422.9,478.3z M356.5,477.6h65.9l3.6-13.5h-35.6l39.6-28.7l2.9-13.7h-63.1l-3.4,13.5h33.1L359.3,464L356.5,477.6z M303,478.3h-20.5l3.6-14.9h12.1l-11.9-42.3h27.3l6.4,26.7l17.8-26.7h27.6l-28,39.2
		C337.2,460.5,324.3,478.3,303,478.3z M283.4,477.6H303c20.9,0,33.6-17.6,33.7-17.8l27.3-38h-25.8l-18.5,27.7l-6.7-27.7h-25.8
		l11.9,42.3h-12.5L283.4,477.6z M544.7,478.3h-44.5l0.1-0.4l11.7-56.8h43.8c10.4,0,17.3,2.3,21.1,6.9c3.8,4.6,4.7,11.8,2.7,21.8
		C575.7,469,564.2,478.3,544.7,478.3z M501.1,477.6h43.6c19.4,0,30.4-8.9,34.3-28c2-9.8,1.1-16.8-2.5-21.2
		c-3.7-4.5-10.4-6.6-20.6-6.6h-43.3L501.1,477.6z M538.7,464.1h-13.2l6-28.8h13.1c5,0,8.3,1.2,10.3,3.6s2.5,6,1.5,10.9
		C554.3,459.4,548.5,464.1,538.7,464.1z M526.3,463.4h12.4c9.4,0,15-4.5,16.9-13.8c0.9-4.7,0.5-8.1-1.3-10.3c-1.8-2.2-5-3.3-9.7-3.3
		h-12.5L526.3,463.4z M492.1,478.3h-60.9L443,421h60.9l-3,14.5h-37.8l-1.5,6.9h35.1l-3,14.5h-35.1l-1.5,6.9h37.8L492.1,478.3z
		 M432.1,477.6h59.4l2.7-13.1h-37.8l1.8-8.3h35.1l2.7-13.1h-35.1l1.8-8.3h37.8l2.7-13.1h-59.4L432.1,477.6z M605.7,478.3c-6.5,0-11.8-5.3-11.8-11.8s5.3-11.8,11.8-11.8s11.8,5.3,11.8,11.8S612.2,478.3,605.7,478.3z
		 "/>
		  <path style="fill:transparent" d="M605.7,455.5c-6.1,0-11.1,5-11.1,11.1c0,6.1,5,11.1,11.1,11.1s11.1-5,11.1-11.1C616.8,460.5,611.8,455.5,605.7,455.5z">    <animate
            attributeType="XML"
            attributeName="fill"
            values="#A891D9; #73CFDB; #A891D9; #73CFDB;"
            dur="1.6s"
            repeatCount="indefinite"/></path>
</g>
</svg>
